inDegrees=no
num_controls=7
num_derivatives=13
num_iterations=76
num_multipliers=7
num_parameters=0
num_slacks=7
num_states=26
objective=0.517160
objective_accelerations=0.040683
objective_balance=0.002153
objective_effort=0.044556
objective_height=0.418168
objective_ligament=0.011600
solver_duration=1015.085727
status=Solve_Succeeded
success=true
DataType=double
version=3
OpenSimVersion=4.5
endheader
time	/jointset/ground_pelvis/pelvis_tilt/value	/jointset/ground_pelvis/pelvis_tx/value	/jointset/ground_pelvis/pelvis_ty/value	/jointset/hip_l/hip_flexion_l/value	/jointset/hip_l/hip_adduction_l/value	/jointset/hip_l/hip_rotation_l/value	/jointset/back/lumbar_extension/value	/jointset/patellofemoral_l/patellar_flexion_l/value	/jointset/knee_l/knee_flexion_l/value	/jointset/knee_l/knee_adduction_l/value	/jointset/knee_l/knee_rotation_l/value	/jointset/ankle_l/ankle_angle_l/value	/jointset/subtalar_l/subtalar_angle_l/value	/jointset/ground_pelvis/pelvis_tilt/speed	/jointset/ground_pelvis/pelvis_tx/speed	/jointset/ground_pelvis/pelvis_ty/speed	/jointset/hip_l/hip_flexion_l/speed	/jointset/hip_l/hip_adduction_l/speed	/jointset/hip_l/hip_rotation_l/speed	/jointset/back/lumbar_extension/speed	/jointset/patellofemoral_l/patellar_flexion_l/speed	/jointset/knee_l/knee_flexion_l/speed	/jointset/knee_l/knee_adduction_l/speed	/jointset/knee_l/knee_rotation_l/speed	/jointset/ankle_l/ankle_angle_l/speed	/jointset/subtalar_l/subtalar_angle_l/speed	/forceset/tau_hip_flexion_l	/forceset/tau_hip_adduction_l	/forceset/tau_hip_rotation_l	/forceset/tau_knee_flexion_l	/forceset/tau_ankle_angle_l	/forceset/tau_subtalar_angle_l	/forceset/tau_lumbar_extension	lambda_cid13_p0	lambda_cid13_p1	lambda_cid13_p2	lambda_cid13_p3	lambda_cid13_p4	lambda_cid13_p5	lambda_cid14_p0	/jointset/ground_pelvis/pelvis_tilt/accel	/jointset/ground_pelvis/pelvis_tx/accel	/jointset/ground_pelvis/pelvis_ty/accel	/jointset/hip_l/hip_flexion_l/accel	/jointset/hip_l/hip_adduction_l/accel	/jointset/hip_l/hip_rotation_l/accel	/jointset/back/lumbar_extension/accel	/jointset/patellofemoral_l/patellar_flexion_l/accel	/jointset/knee_l/knee_flexion_l/accel	/jointset/knee_l/knee_adduction_l/accel	/jointset/knee_l/knee_rotation_l/accel	/jointset/ankle_l/ankle_angle_l/accel	/jointset/subtalar_l/subtalar_angle_l/accel	gamma_cid13_p0	gamma_cid13_p1	gamma_cid13_p2	gamma_cid13_p3	gamma_cid13_p4	gamma_cid13_p5	gamma_cid14_p0
0	-0.03677283627048882	0.05665566871258432	0.9203425213691842	0.3085816938045678	-0.2956254987473838	-0.3012899298741726	-0.3879492264334186	0.2499269421185536	0.2499269421184919	-0.1745317301112244	-0.1742211580059428	-0.0008036623358878681	0.0004490526319093999	0	0	0	0	0	0	0	0	0	0	0	0	0	0.06974952476120039	-0.01881172429185123	-0.01957829467525764	-0.2371491411160664	0.1813718567141667	-0.03582867972375033	0.004684820593522944	13.38162214749944	10.31100200679076	1.221608715804574	17.66487217643878	-628.8298863643893	-53.90776649274465	-23.18639089955196	-1.549139132895928	-2.156364538959108	-0.8697468900545242	9.043457207944083	-0.5693672779009954	2.496596080651749	-6.825028662306748	7.62742938977194	7.627429389772416	1.27582059110821	-0.234790710389624	0.5643840287606755	-0.4256346820154072	2.287285287059474e-09	1.789407629619146e-08	-2.288884321698478e-08	-2.885788809047282e-10	4.056478409066523e-08	8.088968552082228e-09	3.620517885147288e-09
0.01	-0.03684426462404013	0.0565477398860481	0.9202999617470142	0.3090222858808832	-0.2956547472702993	-0.3011634482586015	-0.3882912631768468	0.2503001593117906	0.2503001593117407	-0.1744725622827509	-0.1742292128917207	-0.0007788953803230305	0.0004257485326466581	-0.01399914044643575	-0.02161597803249123	-0.008478595254412828	0.08760302838884804	-0.005871917175384081	0.0253424254776184	-0.06815157622996179	0.07425185201364384	0.0742518520136433	0.01163530978142528	-0.001457547022541428	0.004751806485207273	-0.004754247783245256	0.0561205535438274	-0.02087722018023357	-0.01679224244263041	-0.2165293178322589	0.1493951046292903	-0.02158871544660359	0.01437558306681971	3.545666160683038	5.714503010634322	2.107804717225214	23.83515433257313	-630.348805886557	-62.27872392865682	-23.19090808236825	-1.282322637671327	-2.168746405833277	-0.8319083532810054	8.541417628865766	-0.599437584430355	2.559986188315916	-6.771856231732099	7.265324389020019	7.265324389019904	1.077649588483867	-0.07822716143687931	0.4003407984347355	-0.514334121585502	-1.096510159675664e-08	9.016658676662604e-08	6.740872589176096e-08	9.05879192497335e-09	1.107624468235225e-08	-2.013909555731648e-09	-1.19459941555669e-09
0.02	-0.03704708860956277	0.0562227448850963	0.9201736176702717	0.310323446636002	-0.2957433816943757	-0.3007821583068581	-0.3893071425082611	0.2514041472815325	0.251404147281541	-0.1743029886730433	-0.1742472413403785	-0.0007126579919006298	0.0003520990965299165	-0.02627912637868331	-0.04341323488311655	-0.01675689091451668	0.1721137357581578	-0.01187718023370066	0.05096166723517966	-0.1347685175953362	0.1461541553016722	0.1461541553016694	0.0220811562358117	-0.001994712575116469	0.008294086571758525	-0.01006906737075738	0.04249158232685566	-0.02294271606864496	-0.01400619020983719	-0.1959094945483378	0.1174183525444252	-0.007348751169484953	0.02406634554042397	-6.231052995289786	1.110175111267998	2.992343847856622	29.96555528342286	-630.9480987951976	-70.57598715815055	-23.2040473403211	-1.205308230056517	-2.192620302587331	-0.8296869711927412	8.424993004036457	-0.5960364544874779	2.551959336640222	-6.518101689388143	7.157519644649192	7.157519644649317	1.037927925700601	-0.05071441639659445	0.3224787490279769	-0.5377490428692779	-2.421748848057276e-08	1.624390972370606e-07	1.577062950005067e-07	1.840616273085143e-08	-1.841229472596073e-08	-1.211678766354552e-08	-6.009716716260668e-09
0.03	-0.03736749810307376	0.05568178163075818	0.9199653925067507	0.3124548548545558	-0.295891679702482	-0.3001452623148479	-0.3909774196648892	0.2532159396633401	0.2532159396632863	-0.1740325529104199	-0.1742674454074114	-0.0006131816426313792	0.0002249505074836762	-0.03782360835346171	-0.06451831076842118	-0.02485992321782656	0.2536697354634123	-0.01770883083250283	0.07622650914245382	-0.1986569700024636	0.2158637526482078	0.2158637526482074	0.0320276739888831	-0.002076123654484121	0.01178513091914524	-0.01521881604614638	0.04080892348668495	-0.01842454091207188	-0.01464359458286906	-0.2013696317973664	0.1312897992806395	-0.01364943954971475	0.02754483981177637	-2.05495622374922	3.157977349202366	2.617188967402282	24.98754161656118	-633.3379804411067	-65.84912672793655	-23.22507140157036	-1.132150461648556	-2.030281733742963	-0.796382375754602	7.946170003787881	-0.5657311762157075	2.485075028342174	-6.229725453968673	6.826595741522595	6.826595741523222	0.9763051940147482	0.00866568377255993	0.3900140090158825	-0.4823571286353643	-3.990683538671719e-08	1.309040779687991e-07	1.775954993893305e-07	3.690487394237451e-08	-1.065183330404326e-07	-3.749319923227742e-08	-1.01282484296107e-08
0.04	-0.03780397887249956	0.05493760151711624	0.9196769828170269	0.3153868763800992	-0.2960960945792926	-0.2992614522216381	-0.3932676830331249	0.2557146112108995	0.2557146112109081	-0.1736619936714407	-0.1742893595578536	-0.0004732755036044148	5.055056193092828e-05	-0.04949338154630239	-0.08405660674388099	-0.03279379615510809	0.3322363971694361	-0.02310055397685699	0.1003444874725473	-0.2587657599131132	0.2835299884694265	0.2835299884694272	0.04210585149811235	-0.002336729234677759	0.01638004452339636	-0.01951933867201266	0.03912626464632089	-0.01390636575557766	-0.01528099895515556	-0.2068297690466411	0.1451612460167727	-0.01995012793006313	0.03102333408304985	2.17539863977272	5.198408512145137	2.240776638667259	19.96696583279309	-634.9002745611759	-61.05168427833161	-23.25332708488279	-1.230366473667327	-1.879264320619672	-0.7958550979870783	7.827125404190317	-0.5080509635978172	2.322586621203996	-5.762169190091522	6.748847339586129	6.748847339586011	1.064259876932408	-0.08655331656200113	0.5432526003994885	-0.3679038329651461	-5.564642889126015e-08	9.722869726262625e-08	1.960329849179496e-07	5.559227258494182e-08	-1.958329795797739e-07	-6.318452901669836e-08	-1.423241755353076e-08
0.05	-0.03835702615761144	0.0540049417037516	0.9193098699479092	0.3190900866501984	-0.2963525651842994	-0.2981417123680332	-0.3961417778354196	0.2588799733912461	0.2588799733912105	-0.173190815457553	-0.1743145418683573	-0.0002830799733996656	-0.000163375445788586	-0.06103357780900295	-0.1023059538919066	-0.04061669776556479	0.4079076467947844	-0.02816040178248731	0.1235107546619253	-0.3156163560991014	0.3492004496242194	0.3492004496242115	0.05204377703634767	-0.002654006125164533	0.02171947084693117	-0.02321017545583549	0.03413644595102606	-0.01381402507341113	-0.01492763812849552	-0.2056499051597517	0.1459424200288039	-0.01832087968432856	0.03598469446254937	2.507637574334447	4.457170952731103	2.330945289656519	18.14654342907937	-635.72604321111	-61.83964278848137	-23.28809351430305	-1.103473447609984	-1.772348340150179	-0.7737355954913125	7.362416832711834	-0.5000100117836731	2.299710073640492	-5.580978162850257	6.424848688175006	6.42484868817415	0.9456888019470281	0.002576397976094504	0.5383497811810815	-0.3613580214896226	-6.909599097161898e-08	8.260432028518032e-08	2.296097910398657e-07	6.856953216083841e-08	-2.574647013142477e-07	-8.66230981685337e-08	-1.90539144284819e-08
